<?xml version="1.0"?><svg fill="#000000" xmlns="http://www.w3.org/2000/svg"  viewBox="0 0 50 50" width="32px" height="32px">    <path d="M41,4H9C6.24,4,4,6.24,4,9v32c0,2.76,2.24,5,5,5h32c2.76,0,5-2.24,5-5V9C46,6.24,43.76,4,41,4z M30.65,18 c0.19,0,0.35,0.17,0.35,0.37v4.26c0,0.2-0.16,0.37-0.35,0.37H26c0,0,0,7.98,0,8.19c0,0.2,0.18,2.69,2.78,2.69 c2.15,0,3.67-1.14,3.69-1.15c0.05-0.04,0.12-0.06,0.18-0.06s0.12,0.02,0.17,0.05C32.93,32.78,33,32.9,33,33.03v3.7 c0,0.1-0.04,0.2-0.12,0.26C32.79,37.08,30.32,39,25.25,39C19.17,39,19,32.1,19,31.31V23h-2.65C16.16,23,16,22.85,16,22.65v-3.57 c0-0.15,0.09-0.28,0.22-0.33c0.06-0.02,5.5-2.19,5.5-7.41c0-0.2,0.15-0.36,0.34-0.36L25.65,11c0.19,0,0.35,0.16,0.35,0.35V18H30.65z"/></svg>